<?xml version="1.0" encoding="utf-8"?>
<!-- Generator: Adobe Illustrator 26.3.1, SVG Export Plug-In . SVG Version: 6.00 Build 0)  -->
<svg version="1.1" id="圖層_1" xmlns="http://www.w3.org/2000/svg" xmlns:xlink="http://www.w3.org/1999/xlink" x="0px" y="0px"
	 viewBox="0 0 700 104" style="enable-background:new 0 0 700 104;" xml:space="preserve">
<style type="text/css">
	.st0{fill:#93DA49;}
	.st1{fill:#FFFFFF;}
	.st2{fill:none;}
</style>
<g>
	<g>
		<path class="st0" d="M331.4,58.4c-0.9-2.7-5-2.6-5.5,0.3c-0.7,3.7-4.5,6.1-7.8,7.7c-0.5,0.2-1.1,0.3-1.7,0.4
			c-1.3,0.2-2.5,0.4-3.7,0.5c-7.1,0.5-7.8-4-7.8-4c3.3,0.3,6.8-0.3,10-1c5.1-1.2,10.9-3.8,13.9-8.3c3.4-5,1.2-11.2-2.4-15.5
			c-4.4-5.2-11.8-5.7-18.2-4.4c-7.3,1.5-13.3,5.4-16.6,12.2c-2,4.2-2.4,8.5-1.7,12.8c0,0.7,0.1,1.4,0.2,2.1c0.3,2.2,0.9,4.1,1.9,5.9
			c0.2,0.4,0.4,0.7,0.6,1.1c0.7,1.7,1.6,3.3,2.9,4.8c2.6,2.9,6.1,4.5,9.9,5.4c6.5,1.6,13.8,0,19.2-3.8
			C329.6,71.1,333.6,64.8,331.4,58.4z M300.5,53c0-0.6,0-1.2,0.2-1.7c0.3-1,1.3-1.7,3-2.1c1.7-0.4,3.6-0.7,5.9-0.8s4.6-0.1,7.1,0
			s4.5,4.2,3.3,5.3c-1.2,1.2-2.8,1.9-4.6,2.4l-2.2,0.5c-1.6,0.3-3.6,0.4-5.9,0.2c-2.2-0.2-4.3-1-6-2.3C300.8,54,300.5,53.5,300.5,53
			z"/>
		<g>
			<path class="st1" d="M307.5,43.2c-0.6-0.8-1.5-0.6-2-0.1c-0.5,0.4-0.6,1-0.4,1.6s0.8,1,1.5,0.8c0.1,0,0.1-0.1,0.2-0.1
				c0.4,0,0.8-0.2,1-0.7c0-0.1,0.1-0.3,0-0.4v-0.1c0.1-0.4-0.1-0.6-0.3-0.8C307.5,43.2,307.5,43.2,307.5,43.2z"/>
			<path class="st1" d="M314.8,40c-0.4,0.1-0.7,0.5-0.8,0.9c-0.3,0.4-0.4,1,0,1.4c0.4,0.5,1,0.6,1.6,0.4c0.4-0.1,0.7-0.4,0.8-0.7
				c0.2-0.5,0-1-0.4-1.4C315.8,40.1,315.3,39.8,314.8,40z"/>
		</g>
		<g>
			<path class="st1" d="M210.6,65.1c-0.3,0.1-0.7,0.2-1,0.3c-2,0.8-5.7,4.2-9.6,5.3c-3.9,1.1-14.7,2.5-15.2,0.5
				c-0.8-3.3,7.4-5.3,10.9-6c5.2-0.9,11.6-0.9,16.1-1.4c3.8-0.5,5.1-1.8,5.2-3.9c0.2-2.3-1.5-5.4-7-7c-9-2.3-22.2-0.2-26.3,0.7
				c-5,1-7,2.9-7,4.7c0.2,5,11.1,1.3,16.2,0.8c5.9-0.7,9,0,9.1,1c0.1,0.7-2.3,1.2-4.6,1.5c-13.5,1.7-20.2,8.7-19.5,12.7
				c0.5,3.1,3.7,5.8,11.1,5.3c4.4-0.3,8.8-1.5,13-2.8c2.1-0.6,4.2-1.7,6.2-2.5c0.8-0.3,1.7-1,2.2-0.3c0.3,0.3,0.5,1.8,0.7,2.2
				c0.2,0.6,0.6,1.5,1.1,1.9c1,0.8,3.3,1,4.4,0.3c3.4-1.9,1.2-7.1,0.5-10c-0.1-0.3-0.2-0.6-0.2-0.9C214.9,64,210.9,65,210.6,65.1z"
				/>
			<path class="st1" d="M188.1,72.3c0,0,11.8-0.7,18.3-5l0.4,2l-8.8,4.2L188.1,72.3z"/>
			<g>
				<path class="st1" d="M223.4,63.9c-0.4-3.2-4.1-8.7-1.4-10.8c2.3-1.5,4.8-0.1,6.1,2c1.2,1.9,1.7,2.4,2.5,2.4
					c0.7,0,1.8-2.3,2.7-3.7s2.6-2.4,4.9-2.5c2.7,0,6,1.9,9.2,5.2s9.2,9.4,11.2,8.4c2-1.1,0.3-9-0.3-12.2
					c-0.6-3.2-9.8-36.2-11.3-40.9c-1.5-4.8-2.3-10.9,1.3-11.7s5,3.2,5.7,6.3s10.8,37.4,11.6,46.6c0.1,1.7,5.5-2.8,6.8-3.7
					c1.5-1.1,5.1-4.3,7.3-2.8c2.5,1.8,1.6,4.4-0.9,6.5s-6.4,4.9-6.3,6.2s7.3,3.8,9.5,4.3c3.2,0.7,4.9,2.1,4.3,4.5
					c-0.7,3-5.1,1.9-10.5,0.4c-3-0.8-5.3-2-6.4-1.4c-1,0.7-0.6,2-0.5,4c0.1,2.1,0.1,6-2,6.6c-1.8,0.4-3.4,0.1-4.5-1.4
					c-0.7-0.9-1-3.5-2.1-3.8c-1.2-0.3-2.2,1.2-3.4,1.2c-1.5,0-3.2-1.1-4.3-2c-2-1.7-6.6-5.4-8.7-7.9c-2.1-2.5-4-4-5.1-3.8
					s-2.1,1.5-2.7,4.5c-0.6,3.1-2.1,14.7-7,15C224,79.7,224.3,71.8,223.4,63.9z"/>
				<path class="st1" d="M135,47.7c-2.5,0.1-4.8,0.2-4.9-0.4c-0.1-0.6,2-2.3,3.3-4.1c1-1.3,2.8-3.7,1.9-7.8
					c-0.8-3.5-6.6-6.2-13.4-6.9c-12.1-0.9-27.2-0.3-31.8,0.2c-0.7-3-2.6-6.9-6.5-6.3c-4,0.6-3.4,5.5-3.2,8.1
					C48.9,35.9,8.7,43.9,4.7,44.9c-3.9,1-5.3,3.6-4.5,6.5c1.3,4.6,8.8,2,12.6,1.4C49.3,47.3,73.5,41.2,81.4,40
					c0,0,1.2,11.5,1.4,15.2c0,0-13.5,3.4-17.2,4.7c-3.6,1.3-8.5,3.3-8.3,7.8c0.3,7.5,12.4,3.2,18.3,1.5c2.7-0.8,5.9-1.8,8.5-2.4
					c1.8,14.5,4.9,17.8,7.2,20.8c1,1.3,2.5,2.4,2.6,3.5c0.1,1.2-0.7,1.6-3.5,2.5c-2.1,0.7-9.9,1.7-12.2,1.9
					c-2.2,0.2-4.5,0.6-4.8-0.3c-0.2-0.5,1-1.3,6.2-2.4c4.6-0.9,8.2-2.8,7.6-5.3c-0.4-1.8-2-1.9-5.2-1.6c-6.4,0.7-19.4,4.3-23.1,6.2
					c-2.8,1.4-6.6,3.2-6.4,5.8c0.2,2.6,1.5,4.7,6.2,5.2c24.7-0.3,41.4-4.7,54.7-9.2c34.8-10.7,56.2-24.6,55.9-35.6
					C169.1,47.3,137.4,47.6,135,47.7z M91.3,38.4c14-1.5,32.7-1.7,32.7,0.5c0.1,2.2-7.2,5.6-12.3,8.1c-6,2.9-19.3,5.8-19.3,5.8
					L91.3,38.4z M150.2,66.9c-5.6,3.8-16,9.3-25.3,13.2c-3,1.3-12.2,4.8-16.8,6.3l0,0l0,0c-1,0.3-1.8,0.6-2.2,0.7
					c-1,0.2-2.1,0.5-2.9,0.6l0,0l0,0c-0.2,0-0.3,0-0.5,0h-0.1c-0.3,0-0.6,0-0.8-0.1c-2.8-0.8-7-5-8.2-15.4C93,69,93,64.3,93,64.3
					c5.1-2,39.3-6.7,55-5.9c4.3,0.3,8.7,0.8,8.8,2.3C157,62.4,152.7,65.2,150.2,66.9z"/>
				<path class="st1" d="M188.9,79.8c0,0,10.8-0.6,20.4-5.8l-1.5-1L188.9,79.8z"/>
			</g>
		</g>
		<path class="st0" d="M417.2,24.2C410.8,9,390.8,3.9,375.9,5.6c-16.5,1.9-30.2,12.7-36.1,28.3c-2.8,7.4-3.5,16.1-2.1,23.9
			c0.7,4.1,3.9,8.4,6.1,11.8c2.4,3.8,5.9,6.6,9.5,9.1c5.4,3.6,10.6,6.2,16.4,7.6c2.5,0.8,5.2,1.4,8.1,1.8c8.5,1.3,14.5-1.6,17.2-3
			c0.8-0.4,1.5-0.8,2.2-1.3c0.4-0.2,0.9-0.6,1.5-0.9l0.1-0.1c0.2-0.2,0.4-0.3,0.6-0.5c0.4-0.3,0.7-0.5,1-0.8
			c0.1-0.1,0.1-0.1,0.2-0.2c7-5.9,9.8-12.7,9.8-12.7l0,0c1.5-3.5,0.8-7.6-4.3-7.3c-1.6,0.1-3.2,0.8-4.6,1.8c-5.3,4.4-12,6-22.3,4.4
			c-10.9-1.7-16.1-6.3-18.5-9.5c0-0.1-0.1-0.1-0.1-0.2c-0.3-0.5-0.6-0.9-0.8-1.2c0-0.1-0.1-0.1-0.1-0.2c-0.5-1-0.7-1.6-0.7-1.6
			c12.5,3.8,26.4,8.5,39.2,4.6l0,0c0,0,3.5-0.8,7.6-2.9c2-0.8,3.7-2,5.2-3.3c0,0,0,0,0.1,0c0.6-0.5,0.9-0.8,1-1
			c2.4-2.7,4.1-5.7,5.1-9.2v-0.1C419.7,37.1,420,30.6,417.2,24.2z M400.8,41.2c-0.2,1-0.6,2-1.2,3c-1,1.7-3,2.5-6.2,2.5
			s-6.8-0.4-10.9-1.2s-8.4-1.8-12.8-3s-6.2-9.5-3.6-11s5.8-2.3,9.4-2.2l4.2,0.1c3.1,0.1,6.6,0.8,10.6,2.2c3.9,1.4,7.2,3.6,9.8,6.7
			C400.8,39.2,401,40.1,400.8,41.2z"/>
		<path class="st2" d="M390.2,31.5c-3.9-1.4-7.5-2.1-10.6-2.2l-4.2-0.1c-3.6-0.1-6.7,0.7-9.4,2.2c-2.6,1.5-0.8,9.8,3.6,11
			s8.7,2.2,12.8,3c4.1,0.8,7.7,1.2,10.9,1.2c3.2,0,5.2-0.9,6.2-2.5c0.5-0.9,0.9-1.9,1.2-3c0.2-1.1,0-2-0.8-2.9
			C397.4,35.2,394.1,32.9,390.2,31.5z"/>
		<g>
			<path class="st1" d="M375.7,19c-0.7-0.3-1.5-0.2-2.1,0c-0.2,0-0.5,0.1-0.7,0.2c-0.1,0-0.3,0.1-0.4,0.2l0,0
				c-0.1,0.1-0.2,0.1-0.2,0.2c-0.6,0.4-1,1.1-1.1,2c-0.1,0.7,0.1,1.4,0.4,1.9c0.1,0.4,0.3,0.7,0.5,1c0.2,0.2,1.4,0.7,1.1,0.4l0,0
				c0.3,0.1,0.6,0.2,0.8,0.3c1.7,0.5,3.2-1,3.7-2.5C378.3,21,377.1,19.5,375.7,19z M375.3,20.1c0.6,0.8,0.4,2-0.1,2.8
				c-0.3,0.4-0.7,0.7-1.2,0.8c-0.7,0.2-0.9-0.8-1-1.3c-0.1-0.3,0-0.7,0-1c0.2-0.5,0.6-0.9,1-1.2c0.1-0.1,0.2-0.2,0.4-0.2
				C374.7,19.8,374.9,19.9,375.3,20.1C375.2,20,375.3,20,375.3,20.1z M373.6,24.1h-0.1c-0.2,0-0.3-0.1-0.5-0.3
				C373.2,24,373.5,24.1,373.6,24.1z M376.1,19.6c0.2,0.2,0.4,0.5,0.5,0.8c-0.2-0.2-0.5-0.5-0.8-0.6c-0.1-0.1-0.2-0.2-0.3-0.3
				C375.7,19.5,375.9,19.5,376.1,19.6z"/>
			<path class="st1" d="M400.8,22.1c-1.9-5.5-10.1-4-11.4,1.1c-0.5,1.9,0.8,4.2,2.5,5.2c1.6,1.2,3.6,1.5,5.5,0.5
				C399.9,27.6,401.7,24.9,400.8,22.1z M397.1,21.7c0.3,0.4,0.5,1,0.4,1.7c0,0.5-0.4,1.3-0.9,2c-0.8,0.7-2.1,0.9-3.2,0.7
				c-0.5-0.3-0.8-0.8-0.8-1.3c0.1-0.8,0.4-1.7,0.8-2.2C394.3,21.4,396.1,21,397.1,21.7z M391,25.4c0.2,0.4,0.4,0.6,0.7,0.9
				c0.2,0.6,0.5,1,0.8,1.3c-0.3-0.1-0.6-0.3-0.9-0.6C391.3,26.5,391.1,25.9,391,25.4z M399.6,23.9c0.1-1.1-0.3-2.1-1-2.9
				c0-0.1-0.1-0.3-0.2-0.4c-0.4-0.3-0.8-0.6-1.1-0.8C399.4,20.4,400,22.1,399.6,23.9z"/>
		</g>
		<path class="st0" d="M359.9,56.5c0-0.1-0.1-0.1-0.1-0.2C359.8,56.4,359.8,56.5,359.9,56.5z"/>
		<path class="st0" d="M360.8,58c0-0.1-0.1-0.1-0.1-0.2C360.7,57.9,360.8,57.9,360.8,58z"/>
		<path class="st2" d="M390.2,31.5c-3.9-1.4-7.5-2.1-10.6-2.2l-4.2-0.1c-3.6-0.1-6.7,0.7-9.4,2.2c-2.6,1.5-0.8,9.8,3.6,11
			s8.7,2.2,12.8,3c4.1,0.8,7.7,1.2,10.9,1.2c3.2,0,5.2-0.9,6.2-2.5c0.5-0.9,0.9-1.9,1.2-3c0.2-1.1,0-2-0.8-2.9
			C397.4,35.2,394.1,32.9,390.2,31.5z"/>
		<path class="st0" d="M359,54.8c0,0,0.2,0.6,0.7,1.6C359.5,55.9,359.2,55.4,359,54.8z"/>
		<path class="st0" d="M360.7,57.8c-0.3-0.4-0.6-0.8-0.8-1.2C360.1,56.9,360.3,57.3,360.7,57.8z"/>
	</g>
	<polygon class="st2" points="529.1,60.1 550.1,60.1 550.1,60.1 	"/>
	<g>
		<g>
			<path class="st1" d="M458.2,34c-2.9,3.4-5.8,6.8-8.7,9.9c0.3,2.7,0.5,5.3,0.8,7.8c2.8,2,6.5,3.6,11.2,4.7c0.9,0.3,1.3,1,1.1,2
				c-0.5,1.1-1.3,1.5-2.3,1.4c-0.8-0.1-4-1.1-9.6-3.2c0.5,4.8,0.9,9.6,1.3,14.2c0.1,1.5-0.6,2.4-2,2.8c-1.5-0.1-2.1-1-2-2.6
				c-0.1-3-0.1-5.9-0.1-8.5c-0.2-5.4-0.8-10.3-1.9-14.7c-1.9,2-3.8,3.9-5.6,5.7c-1.5,2.1-2.7,2.9-3.8,2.4c-1-0.9-1-1.8,0.1-2.7
				c3.2-2.9,6-5.8,8.4-8.7c3.3-3.6,5.7-6.8,7.1-9.5c-2.6,0.2-5.6,0.3-8.8,0.4c-1.1-0.1-1.9-0.6-2.5-1.4c-0.2-0.9,0-1.4,0.6-1.5
				c1.8,0,3.3,0,4.7,0.1c3.6-0.3,6.6-0.7,9-1C457.6,31.4,458.6,32.2,458.2,34z M445,20.9c1.5,0.1,3.8,1.3,7,3.7
				c0.5,0.4,0.7,0.9,0.6,1.6c-0.1,0.5-0.5,0.9-1,1.1c-2.2,0.1-4.7-1.2-7.4-3.7c-0.7-0.7-1-1.3-0.7-1.9S444.3,20.9,445,20.9z
				 M478.1,30.2c-0.2,2.4-0.3,5-0.3,7.9c2.5-0.3,4.8-0.7,7-1.4c1.3,0,2,0.5,2.2,1.6c0.1,1-0.6,1.7-1.9,2.1c-0.7,0.4-3.2,0.8-7.4,1.3
				c0,0.6,0,1,0,1.3c0.1,5.2,0.2,11.2,0.5,18.1c0,0.7-0.1,1.2-0.2,1.5c2.7-0.2,6-0.5,9.9-0.9c2.6-0.1,4.4-0.3,5.4-0.6
				c0.9-0.1,1.5,0.4,2.1,1.3c0.2,1.5-0.7,2.5-2.8,3.1c-2.6,0.1-5.2,0.2-7.6,0.2c-4.4,0.4-8.1,0.6-11.3,0.6c-3.2-0.3-6.2-0.6-9-0.9
				c-3,0-4.5-0.7-4.4-2.2c0.1-1.1,1.3-1.7,3.4-1.8c3.6,0.8,7.3,1.2,11,1.3c-0.1-0.7-0.2-1.4-0.1-2.2c0-6-0.1-12.1-0.3-18.3
				c-2.4,0.3-4.6,0.4-6.6,0.4c-1.9-0.1-2.9-0.8-3-2.2c0.2-1.3,1.4-1.9,3.6-1.8c2.1,0.1,4.1,0,6-0.1c-0.1-2.8-0.3-5.7-0.4-8.4
				c0.3-1.3,1.1-1.9,2.2-1.8C477.1,28.2,477.8,28.8,478.1,30.2z"/>
			<path class="st1" d="M531.8,41.3c0,0.9-0.6,1.4-1.7,1.5c-0.3,0-0.5,0-0.6-0.1c-1.2,0.6-4.5,1.4-9.8,2.3c-0.5,0.1-1,0.1-1.5,0.2
				c-0.3,1.8-0.7,3.6-1.2,5.3c0.7,0.3,1.1,0.9,1.2,1.8c1.3-0.3,2.8-0.7,4.5-1c3.1-0.6,5.5-1,7-1.3c1.9,0.3,3,1.3,3.3,3.1
				c0.1,3.8-0.1,7.6-0.4,11.4c-0.3,3.4-1.8,5.6-4.6,6.3c-3.6,0.1-6.9-0.8-9.7-2.6c-0.3,0.9-0.9,1.4-1.6,1.5
				c-1.1-0.2-1.8-1.1-1.9-2.8c0.2-2.1,0.2-5.6-0.1-10.5c-0.3,0.7-0.7,1.4-1.1,2.1c-2.3,3.8-4.5,6-6.5,6.7c-1.3,0.1-2-0.5-2.4-2
				c0.1-1.3,0.6-2,1.3-2.3c0.5,1.3,2.1,0,4.7-4c1.8-3,3.1-6.8,3.9-11.4c-1.8,0.2-3.5,0.3-5.2,0.3c-1.7-0.1-2.6-0.7-2.7-2
				c0.2-1.3,1.3-1.8,3.3-1.7c1.9,0.1,3.6,0,5.3-0.1c0.3-2.4,0.4-4.8,0.5-7.3c-2.2,0.2-4.4,0.3-6.4,0.3c-1.9-0.1-2.8-0.8-2.9-2.1
				c0.2-1.3,1.4-1.9,3.5-1.8c2,0.1,4,0.1,5.9,0v-4c0.4-1.4,1-2,1.8-1.9c1.3-0.2,2,0.6,2.1,2.4c0,1.1,0,2.2-0.1,3.2
				c3-0.3,6-0.8,8.8-1.5c0.1-1.3,0.1-2.6,0.2-3.9c0.5-1.5,0-2-1.4-1.8l-8.7,0.6c-2.8,0.7-5.4,0.6-7.8-0.2c-2-1.4-2-2.5,0.3-3.5
				c6.4,0,12.7,0,19.1-0.1c3-0.6,3.9,0.8,2.5,4.1c-0.2,1.1-0.3,2.3-0.4,3.6c0.7-0.2,1.3-0.4,1.9-0.6c1.3,0,2,0.5,2.1,1.5
				s-0.5,1.7-1.8,2.1c-0.5,0.3-1.3,0.6-2.6,0.9C531.5,36,531.5,39.1,531.8,41.3z M518.5,65.1c1.5,1.5,3.6,2.2,6.3,2.2
				c2.5,0,3.9-1,4.4-3.1c0.1-0.9,0.2-3.4,0.2-7.3c0.1-2.3-0.5-3.3-1.7-3.1c-4.8,0.6-7.9,1.2-9.3,1.9
				C518.6,59.3,518.6,62.5,518.5,65.1z M519.6,34.3c-0.1,2.7-0.4,5.1-0.8,7.3c3.2-0.4,6.3-1.1,9.2-2c0.1-1.8,0.2-4.1,0.3-6.8
				c-1.9,0.5-4,0.9-6.2,1.2C521.2,34.1,520.4,34.2,519.6,34.3z M543.4,22.5c-0.1-1.3,0.5-2.1,1.8-2.5c1.1-0.3,1.8,0.4,2.1,1.9
				c0,1.7,0.6,4.2,1.8,7.5c0.8,0.5,1.3,1,1.5,1.5c1.4-2.1,2.5-5.2,3.2-9.3c0.6-0.8,1.3-1,2.2-0.6c1.1,0.5,1.5,1.3,1.3,2.2
				c-0.9,3.2-1.8,5.7-2.7,7.5c2-0.3,4-0.8,5.8-1.3c1.3,0,2,0.5,2.2,1.6c0.1,1-0.6,1.7-1.9,2.1c-0.8,0.5-3.4,1-7.8,1.7
				c-0.1,1.7-0.2,3.2-0.3,4.8c1.8-0.3,3.7-0.7,5.5-1.3c1.3,0,2,0.5,2.2,1.6c0.1,1-0.6,1.7-1.9,2.1c-0.5,0.4-2.5,0.9-6,1.5
				c-0.1,2-0.2,3.9-0.3,5.8c4-0.5,7.9-1.2,11.7-2.3c1.3,0,2,0.5,2.2,1.6c0.1,1-0.6,1.7-1.9,2.1c-1.1,0.6-5.2,1.4-12.2,2.3
				c-0.2,2.9-0.4,5.7-0.5,8.4c0,4.3,0.1,8,0.4,11.1c-0.1,2.4-1,3.6-2.5,3.8c-1.5-0.3-2.2-1.2-1.9-2.9c0.1-1.8,0.4-5.9,0.9-12
				c0.1-2.8,0.1-5.5,0.2-8c-3.2,0.3-6.2,0.4-8.9,0.4c-1.9-0.1-2.9-0.8-3-2.2c0.2-1.3,1.4-1.9,3.6-1.8c2.9,0.1,5.7,0,8.4-0.2
				c0.1-1.8,0.1-3.7,0.1-5.6c-2.2,0.3-4.4,0.4-6.5,0.4c-1.9-0.1-2.9-0.8-3-2.2c0.2-1.3,1.4-1.9,3.6-1.8c2.2,0.1,4.2,0,6.2-0.2
				c0.1-1.7,0.1-3.3,0.1-4.9c-3.2,0.3-6.2,0.5-8.9,0.5c-1.9-0.1-2.9-0.8-3-2.2c0.2-1.3,1.4-1.9,3.6-1.8c1.9,0.1,3.8,0,5.7-0.1
				C545.1,29.4,544.1,26.3,543.4,22.5z"/>
			<path class="st1" d="M593.3,63.3c2-1.7,3.5-4.2,4.5-7.4c0.6-0.8,1.3-1,2.2-0.6c1.1,0.5,1.5,1.2,1.3,2.1c-1.4,3-2.7,5.4-4,6.9
				c1.5-0.5,3-1.2,4.4-2c0.8-0.2,1.3,0.1,1.6,1c0.2,0.9-0.1,1.7-0.9,2.2c-4.5,2.7-10.4,4.9-17.8,6.6c-1.2,0.1-2-0.4-2.5-1.7
				c-0.3-1.3,0.2-2.2,1.3-2.5c1.1-0.1,2-0.3,3-0.5c-3-2.9-5.5-6.8-7.5-11.6c-0.3,0.1-0.5,0.1-0.7,0.1c-1.1,0.1-1.8-0.4-2.1-1.5
				s0.1-1.8,1.1-2.2c4.6-0.5,8.6-1.3,12.2-2.2c-0.1-1.8-0.3-3.7-0.4-5.6c-0.7,0.2-1.4,0.4-2.1,0.5c-2.2,0.3-4,0.4-5.4,0.3
				c-3,0.1-4.5-0.6-4.6-1.9c-0.3-1.2,1.3-1.8,4.7-1.8c1.5,0,3.2-0.1,5.3-0.2c2.3-0.5,5-1.3,8.1-2.3c0.7-0.1,1.2,0.1,1.5,0.4
				c0.5,1.1,0.2,1.8-0.7,2.4c-0.9,0.5-1.8,1-2.9,1.3c-0.1,1.7-0.1,3.7-0.1,5.9c1.8-0.5,3.5-1.1,5.1-1.8c0.9-0.2,1.5,0.2,1.9,1.1
				c0.3,1.1-0.1,2-1.1,2.6c-1.8,0.7-3.7,1.4-5.9,1.9C593,56.1,593.2,59.6,593.3,63.3z M577.2,41.1c-1.1-1.1-0.5-2.7,1.9-5.1
				c0.9-0.7,2.5-3.6,4.9-8.6c0.8-1.6,1.5-2.5,2-2.7c0.7-0.3,2,0.8,3.9,3.4c1.7,1.2,3.7,2.1,6.2,2.9c2.5-0.1,3.9,0.6,4.5,2.1
				c-0.1,1.4-1,2-2.9,1.9c-4-0.6-7.7-2.2-11.3-5l-4.9,8.8C580.4,41.1,579,41.8,577.2,41.1z M582.8,55.1c0.3,2.4,2.5,5.6,6.5,9.6
				c0.3,0.2,0.5,0.3,0.6,0.4c0-3.8-0.1-7.6-0.3-11.4C587.4,54.2,585.1,54.7,582.8,55.1z M604.9,69.5c0.6-4.3,0.9-10.3,0.9-18
				c-0.1-5.8-0.3-12.3-0.6-19.5c-1.3,0.1-2.1-0.3-2.5-1.2c-0.1-1.3,0.7-2.1,2.2-2.7c2.5-0.7,8-1.3,16.4-2c2.4,0.3,3.5,1.6,3.3,4
				c0,2.2-0.1,5.5-0.4,9.7c0.1,0,0.1,0,0.2,0c1.1,0.1,1.5,0.6,1.3,1.6c-0.9,1.8-2.7,3.3-5.4,4.5c-4.6,1.4-7.9,2.1-10.1,2.1
				c-0.4,0.1-0.7,0.1-1,0c-0.1,6.5-0.2,13-0.3,19.5c1.6,0.6,4.3-1.7,8.1-6.8c0.3-0.5,0.8-0.6,1.3-0.5c-1.6-1.8-3.2-3.7-4.9-5.8
				c-0.1-1,0.2-1.7,0.9-2c0.8-0.5,1.5-0.3,2,0.4c1.2,1.5,2.4,2.8,3.5,4c2.5-2,4.3-4.9,5.6-8.5c0.7-0.8,1.4-1,2.2-0.6
				c1.1,0.5,1.5,1.2,1.3,2.1c-2.3,4.9-4.5,8.1-6.5,9.6c3.8,3.8,7.3,6.1,10.4,7c1.1,0.4,2.1,0.4,3.2,0.1c1.3,0.4,1.9,1.1,1.8,2.2
				c-0.7,1.1-1.9,1.7-3.5,1.7c-4.2,0.1-9.3-3-15.2-9.3c0.1,0.3,0.1,0.6,0,0.8c-1.7,4-4.6,7.3-8.7,9.8c-1.1,0.5-2,0.9-3,1
				C605.5,72.2,604.7,71.2,604.9,69.5z M609.1,36.1c3.9,0.1,7-0.5,9.2-1.7c0.9-0.8,1.7-1.3,2.4-1.4c0.1-0.7,0.1-1.4,0.1-2.1
				c0.1-1.5-0.2-2.1-0.9-1.9c-1.5,0.3-3.9,0.7-7.2,1.2c-1.3,0.2-2.4,0.4-3.4,0.7v0.7C609.3,33.2,609.3,34.7,609.1,36.1z M609.1,44.2
				c0.2,0,0.4,0,0.5,0c4.5,0.1,8-0.8,10.6-2.6c0.1-1.5,0.2-3.1,0.3-4.7c-0.6,0.5-1.3,0.9-2.1,1.2c-4,1.1-7,1.7-8.8,1.7h-0.5
				C609.1,41.3,609.1,42.8,609.1,44.2z"/>
		</g>
		<g>
			<path class="st1" d="M644.7,55.7c8.2-4.8,14.3-11.8,18.4-21.1c0.6-0.8,1.4-1,2.3-0.6c1.1,0.5,1.6,1.2,1.3,2.2
				c-3.1,5.5-6.1,10-9,13.5c0.8,0.2,1.2,0.7,1.3,1.6c1.5,3.9,2.7,8.6,3.4,14c0.2,1.6-0.3,2.6-1.6,3c-1.3,0.1-2.1-0.7-2.4-2.2
				c-0.2-3.9-1.2-8.5-3.1-13.8c-3.3,3.5-6.4,5.8-9.5,7c-1.2,0.1-2-0.2-2.4-1.1C643.4,57,643.8,56.2,644.7,55.7z M646,38.1
				c0.3-0.8,3.9-5,10.9-12.4c1-0.7,1.9-0.5,2.6,0.6c0.5,1.1,0.3,2.1-0.5,2.9c-2.4,1.9-5.6,5.3-9.5,10.3c-0.8,0.9-1.7,1.1-2.7,0.7
				C646,39.5,645.7,38.8,646,38.1z M686,41.2c-5.3,1.2-10,1.9-14.2,2c-1.3-0.2-2.2-0.8-2.5-1.8c-0.2-1,0.5-1.8,2.3-2.2
				c5.2,0.3,11.4-0.6,18.6-2.6c4-1,6.4-1.7,7.4-2.1c0.3-0.1,0.8,0,1.5,0.4c0.8,0.6,1.1,1.1,0.9,1.8c-0.3,0.6-2.6,1.5-7.1,2.7
				c-1.1,0.3-2.1,0.6-3,0.8c0.5,2.5,0.8,7.3,0.8,14.5v12.7c0.1,0.7,0.1,1.4,0.2,2.1c-0.3,1.5-1.3,2.4-3,2.5c-0.6,0.1-2-0.7-4.2-2.2
				c-2.8-1.7-4.5-3-5.2-4.1c0-1.7,0.8-2.2,2.3-1.6l5.3,2.5c1,1,1.2-3.6,0.6-14C686.8,48.4,686.6,44.6,686,41.2z M692.4,24.4
				c0.7,0.1,1.2,0.4,1.6,0.8c0.4,0.6,0.6,1.3,0.5,2c-1.2,1.7-4.5,2.6-9.7,2.5c-2.7,0.1-5.3-0.4-7.9-1.2c-0.8-0.6-1.2-1.3-1.1-2.1
				c0.1-0.9,0.7-1.5,1.6-1.7c1.9,0.9,4.2,1.3,7,1.1C686.9,25.9,689.6,25.4,692.4,24.4z"/>
		</g>
	</g>
</g>
<rect class="st2" width="700" height="104"/>
</svg>
